<mxfile host="app.diagrams.net" agent="Mozilla/5.0 (Windows NT 10.0; Win64; x64) AppleWebKit/537.36 (KHTML, like Gecko) Chrome/140.0.0.0 Safari/537.36" version="28.2.5">
  <diagram name="Página-1" id="jT0MTBSpt1iHs6xYryp3">
    <mxGraphModel dx="1958" dy="845" grid="1" gridSize="10" guides="1" tooltips="1" connect="1" arrows="1" fold="1" page="1" pageScale="1" pageWidth="827" pageHeight="1169" math="0" shadow="0">
      <root>
        <mxCell id="0" />
        <mxCell id="1" parent="0" />
        <mxCell id="kep9tZwdi1dzuAn-x4I1-3" value="" style="edgeStyle=orthogonalEdgeStyle;rounded=0;orthogonalLoop=1;jettySize=auto;html=1;" parent="1" source="kep9tZwdi1dzuAn-x4I1-1" target="kep9tZwdi1dzuAn-x4I1-2" edge="1">
          <mxGeometry relative="1" as="geometry" />
        </mxCell>
        <mxCell id="kep9tZwdi1dzuAn-x4I1-1" value="Dataset" style="rounded=1;whiteSpace=wrap;html=1;" parent="1" vertex="1">
          <mxGeometry x="40" y="200" width="120" height="60" as="geometry" />
        </mxCell>
        <mxCell id="kep9tZwdi1dzuAn-x4I1-5" value="" style="edgeStyle=orthogonalEdgeStyle;rounded=0;orthogonalLoop=1;jettySize=auto;html=1;" parent="1" source="kep9tZwdi1dzuAn-x4I1-2" target="kep9tZwdi1dzuAn-x4I1-4" edge="1">
          <mxGeometry relative="1" as="geometry" />
        </mxCell>
        <mxCell id="kep9tZwdi1dzuAn-x4I1-2" value="Análisis Exploratorio de Datos (EDA)&lt;div&gt;- Ver información&lt;/div&gt;&lt;div&gt;- Número de muestras&lt;/div&gt;&lt;div&gt;- Duplicados&lt;/div&gt;&lt;div&gt;- Nulos&lt;/div&gt;" style="whiteSpace=wrap;html=1;rounded=1;" parent="1" vertex="1">
          <mxGeometry x="200" y="185" width="160" height="90" as="geometry" />
        </mxCell>
        <mxCell id="kep9tZwdi1dzuAn-x4I1-8" value="" style="edgeStyle=orthogonalEdgeStyle;rounded=0;orthogonalLoop=1;jettySize=auto;html=1;" parent="1" source="kep9tZwdi1dzuAn-x4I1-4" target="kep9tZwdi1dzuAn-x4I1-7" edge="1">
          <mxGeometry relative="1" as="geometry" />
        </mxCell>
        <mxCell id="kep9tZwdi1dzuAn-x4I1-10" style="edgeStyle=orthogonalEdgeStyle;rounded=0;orthogonalLoop=1;jettySize=auto;html=1;" parent="1" source="kep9tZwdi1dzuAn-x4I1-4" edge="1">
          <mxGeometry relative="1" as="geometry">
            <mxPoint x="640" y="270" as="targetPoint" />
          </mxGeometry>
        </mxCell>
        <mxCell id="kep9tZwdi1dzuAn-x4I1-4" value="Feature Engineering&lt;div&gt;- Drop variables irrelevantes&lt;/div&gt;&lt;div&gt;- Limpiar Datos&lt;/div&gt;&lt;div&gt;- Creación de dummies&lt;br&gt;&lt;div&gt;&lt;br&gt;&lt;/div&gt;&lt;/div&gt;" style="whiteSpace=wrap;html=1;rounded=1;" parent="1" vertex="1">
          <mxGeometry x="410" y="190" width="180" height="80" as="geometry" />
        </mxCell>
        <mxCell id="kep9tZwdi1dzuAn-x4I1-6" value="&lt;font style=&quot;font-size: 24px;&quot;&gt;Pipeline&lt;/font&gt;" style="text;html=1;align=center;verticalAlign=middle;whiteSpace=wrap;rounded=0;" parent="1" vertex="1">
          <mxGeometry x="50" y="140" width="100" height="40" as="geometry" />
        </mxCell>
        <mxCell id="kep9tZwdi1dzuAn-x4I1-13" style="edgeStyle=orthogonalEdgeStyle;rounded=0;orthogonalLoop=1;jettySize=auto;html=1;" parent="1" source="kep9tZwdi1dzuAn-x4I1-7" edge="1">
          <mxGeometry relative="1" as="geometry">
            <mxPoint x="720" y="200" as="targetPoint" />
            <Array as="points">
              <mxPoint x="720" y="170" />
            </Array>
          </mxGeometry>
        </mxCell>
        <mxCell id="kep9tZwdi1dzuAn-x4I1-7" value="x" style="whiteSpace=wrap;html=1;rounded=1;" parent="1" vertex="1">
          <mxGeometry x="640" y="150" width="50" height="40" as="geometry" />
        </mxCell>
        <mxCell id="kep9tZwdi1dzuAn-x4I1-12" style="edgeStyle=orthogonalEdgeStyle;rounded=0;orthogonalLoop=1;jettySize=auto;html=1;" parent="1" source="kep9tZwdi1dzuAn-x4I1-11" edge="1">
          <mxGeometry relative="1" as="geometry">
            <mxPoint x="720" y="240" as="targetPoint" />
            <Array as="points">
              <mxPoint x="720" y="270" />
            </Array>
          </mxGeometry>
        </mxCell>
        <mxCell id="kep9tZwdi1dzuAn-x4I1-11" value="y" style="rounded=1;whiteSpace=wrap;html=1;" parent="1" vertex="1">
          <mxGeometry x="640" y="250" width="50" height="40" as="geometry" />
        </mxCell>
        <mxCell id="kep9tZwdi1dzuAn-x4I1-17" value="" style="edgeStyle=orthogonalEdgeStyle;rounded=0;orthogonalLoop=1;jettySize=auto;html=1;" parent="1" source="kep9tZwdi1dzuAn-x4I1-15" target="kep9tZwdi1dzuAn-x4I1-16" edge="1">
          <mxGeometry relative="1" as="geometry" />
        </mxCell>
        <mxCell id="kep9tZwdi1dzuAn-x4I1-20" style="edgeStyle=orthogonalEdgeStyle;rounded=0;orthogonalLoop=1;jettySize=auto;html=1;" parent="1" source="kep9tZwdi1dzuAn-x4I1-15" edge="1">
          <mxGeometry relative="1" as="geometry">
            <mxPoint x="760" y="330" as="targetPoint" />
          </mxGeometry>
        </mxCell>
        <mxCell id="kep9tZwdi1dzuAn-x4I1-21" style="edgeStyle=orthogonalEdgeStyle;rounded=0;orthogonalLoop=1;jettySize=auto;html=1;" parent="1" source="kep9tZwdi1dzuAn-x4I1-15" edge="1">
          <mxGeometry relative="1" as="geometry">
            <mxPoint x="820" y="330" as="targetPoint" />
          </mxGeometry>
        </mxCell>
        <mxCell id="kep9tZwdi1dzuAn-x4I1-23" style="edgeStyle=orthogonalEdgeStyle;rounded=0;orthogonalLoop=1;jettySize=auto;html=1;" parent="1" source="kep9tZwdi1dzuAn-x4I1-15" edge="1">
          <mxGeometry relative="1" as="geometry">
            <mxPoint x="880" y="330" as="targetPoint" />
            <Array as="points">
              <mxPoint x="780" y="290" />
              <mxPoint x="880" y="290" />
            </Array>
          </mxGeometry>
        </mxCell>
        <mxCell id="kep9tZwdi1dzuAn-x4I1-15" value="Cross-Validation&lt;div&gt;-Train-Test Split&lt;/div&gt;" style="rounded=1;whiteSpace=wrap;html=1;" parent="1" vertex="1">
          <mxGeometry x="720" y="190" width="120" height="60" as="geometry" />
        </mxCell>
        <mxCell id="XMmYEZVZqPeoU-TsVdnT-3" value="" style="edgeStyle=orthogonalEdgeStyle;rounded=0;orthogonalLoop=1;jettySize=auto;html=1;" edge="1" parent="1" source="kep9tZwdi1dzuAn-x4I1-16" target="XMmYEZVZqPeoU-TsVdnT-2">
          <mxGeometry relative="1" as="geometry" />
        </mxCell>
        <mxCell id="kep9tZwdi1dzuAn-x4I1-16" value="x_train" style="whiteSpace=wrap;html=1;rounded=1;" parent="1" vertex="1">
          <mxGeometry x="670" y="330" width="50" height="30" as="geometry" />
        </mxCell>
        <mxCell id="XMmYEZVZqPeoU-TsVdnT-30" style="edgeStyle=orthogonalEdgeStyle;rounded=0;orthogonalLoop=1;jettySize=auto;html=1;entryX=1;entryY=0.75;entryDx=0;entryDy=0;" edge="1" parent="1" source="kep9tZwdi1dzuAn-x4I1-19" target="XMmYEZVZqPeoU-TsVdnT-27">
          <mxGeometry relative="1" as="geometry" />
        </mxCell>
        <mxCell id="kep9tZwdi1dzuAn-x4I1-19" value="y_train" style="whiteSpace=wrap;html=1;rounded=1;" parent="1" vertex="1">
          <mxGeometry x="740" y="330" width="50" height="30" as="geometry" />
        </mxCell>
        <mxCell id="XMmYEZVZqPeoU-TsVdnT-5" value="" style="edgeStyle=orthogonalEdgeStyle;rounded=0;orthogonalLoop=1;jettySize=auto;html=1;" edge="1" parent="1" source="kep9tZwdi1dzuAn-x4I1-22" target="XMmYEZVZqPeoU-TsVdnT-4">
          <mxGeometry relative="1" as="geometry" />
        </mxCell>
        <mxCell id="kep9tZwdi1dzuAn-x4I1-22" value="x_test" style="whiteSpace=wrap;html=1;rounded=1;" parent="1" vertex="1">
          <mxGeometry x="800" y="330" width="50" height="30" as="geometry" />
        </mxCell>
        <mxCell id="kep9tZwdi1dzuAn-x4I1-24" value="y_test" style="whiteSpace=wrap;html=1;rounded=1;" parent="1" vertex="1">
          <mxGeometry x="860" y="330" width="50" height="30" as="geometry" />
        </mxCell>
        <mxCell id="XMmYEZVZqPeoU-TsVdnT-9" value="" style="edgeStyle=orthogonalEdgeStyle;rounded=0;orthogonalLoop=1;jettySize=auto;html=1;" edge="1" parent="1" source="XMmYEZVZqPeoU-TsVdnT-2" target="XMmYEZVZqPeoU-TsVdnT-8">
          <mxGeometry relative="1" as="geometry" />
        </mxCell>
        <mxCell id="XMmYEZVZqPeoU-TsVdnT-2" value="scaler" style="whiteSpace=wrap;html=1;rounded=1;" vertex="1" parent="1">
          <mxGeometry x="667.5" y="380" width="55" height="50" as="geometry" />
        </mxCell>
        <mxCell id="XMmYEZVZqPeoU-TsVdnT-11" value="" style="edgeStyle=orthogonalEdgeStyle;rounded=0;orthogonalLoop=1;jettySize=auto;html=1;" edge="1" parent="1" source="XMmYEZVZqPeoU-TsVdnT-4" target="XMmYEZVZqPeoU-TsVdnT-10">
          <mxGeometry relative="1" as="geometry" />
        </mxCell>
        <mxCell id="XMmYEZVZqPeoU-TsVdnT-4" value="scaler" style="whiteSpace=wrap;html=1;rounded=1;" vertex="1" parent="1">
          <mxGeometry x="792.5" y="385" width="65" height="40" as="geometry" />
        </mxCell>
        <mxCell id="XMmYEZVZqPeoU-TsVdnT-20" value="" style="edgeStyle=orthogonalEdgeStyle;rounded=0;orthogonalLoop=1;jettySize=auto;html=1;" edge="1" parent="1" source="XMmYEZVZqPeoU-TsVdnT-8" target="XMmYEZVZqPeoU-TsVdnT-19">
          <mxGeometry relative="1" as="geometry" />
        </mxCell>
        <mxCell id="XMmYEZVZqPeoU-TsVdnT-29" style="edgeStyle=orthogonalEdgeStyle;rounded=0;orthogonalLoop=1;jettySize=auto;html=1;entryX=0;entryY=0.75;entryDx=0;entryDy=0;" edge="1" parent="1" source="XMmYEZVZqPeoU-TsVdnT-8" target="XMmYEZVZqPeoU-TsVdnT-23">
          <mxGeometry relative="1" as="geometry">
            <Array as="points">
              <mxPoint x="510" y="485" />
              <mxPoint x="510" y="770" />
            </Array>
          </mxGeometry>
        </mxCell>
        <mxCell id="XMmYEZVZqPeoU-TsVdnT-8" value="X_train_scaled" style="whiteSpace=wrap;html=1;rounded=1;" vertex="1" parent="1">
          <mxGeometry x="647.5" y="460" width="95" height="50" as="geometry" />
        </mxCell>
        <mxCell id="XMmYEZVZqPeoU-TsVdnT-13" value="" style="edgeStyle=orthogonalEdgeStyle;rounded=0;orthogonalLoop=1;jettySize=auto;html=1;" edge="1" parent="1" source="XMmYEZVZqPeoU-TsVdnT-10" target="XMmYEZVZqPeoU-TsVdnT-12">
          <mxGeometry relative="1" as="geometry" />
        </mxCell>
        <mxCell id="XMmYEZVZqPeoU-TsVdnT-10" value="X_test_scaled" style="whiteSpace=wrap;html=1;rounded=1;" vertex="1" parent="1">
          <mxGeometry x="777.5" y="462.5" width="95" height="45" as="geometry" />
        </mxCell>
        <mxCell id="XMmYEZVZqPeoU-TsVdnT-15" value="" style="edgeStyle=orthogonalEdgeStyle;rounded=0;orthogonalLoop=1;jettySize=auto;html=1;" edge="1" parent="1" source="XMmYEZVZqPeoU-TsVdnT-12" target="XMmYEZVZqPeoU-TsVdnT-14">
          <mxGeometry relative="1" as="geometry" />
        </mxCell>
        <mxCell id="XMmYEZVZqPeoU-TsVdnT-12" value="pred" style="whiteSpace=wrap;html=1;rounded=1;" vertex="1" parent="1">
          <mxGeometry x="782.5" y="545" width="85" height="40" as="geometry" />
        </mxCell>
        <mxCell id="XMmYEZVZqPeoU-TsVdnT-17" value="" style="edgeStyle=orthogonalEdgeStyle;rounded=0;orthogonalLoop=1;jettySize=auto;html=1;" edge="1" parent="1" source="XMmYEZVZqPeoU-TsVdnT-14" target="XMmYEZVZqPeoU-TsVdnT-16">
          <mxGeometry relative="1" as="geometry" />
        </mxCell>
        <mxCell id="XMmYEZVZqPeoU-TsVdnT-14" value="y_pred_test" style="whiteSpace=wrap;html=1;rounded=1;" vertex="1" parent="1">
          <mxGeometry x="772.5" y="610" width="105" height="40" as="geometry" />
        </mxCell>
        <mxCell id="XMmYEZVZqPeoU-TsVdnT-16" value="R2_test" style="whiteSpace=wrap;html=1;rounded=1;" vertex="1" parent="1">
          <mxGeometry x="765" y="680" width="120" height="60" as="geometry" />
        </mxCell>
        <mxCell id="XMmYEZVZqPeoU-TsVdnT-18" style="edgeStyle=orthogonalEdgeStyle;rounded=0;orthogonalLoop=1;jettySize=auto;html=1;entryX=1.019;entryY=0.615;entryDx=0;entryDy=0;entryPerimeter=0;" edge="1" parent="1" source="kep9tZwdi1dzuAn-x4I1-24" target="XMmYEZVZqPeoU-TsVdnT-16">
          <mxGeometry relative="1" as="geometry">
            <Array as="points">
              <mxPoint x="885" y="370" />
              <mxPoint x="920" y="370" />
              <mxPoint x="920" y="717" />
            </Array>
          </mxGeometry>
        </mxCell>
        <mxCell id="XMmYEZVZqPeoU-TsVdnT-22" value="" style="edgeStyle=orthogonalEdgeStyle;rounded=0;orthogonalLoop=1;jettySize=auto;html=1;" edge="1" parent="1" source="XMmYEZVZqPeoU-TsVdnT-19" target="XMmYEZVZqPeoU-TsVdnT-21">
          <mxGeometry relative="1" as="geometry" />
        </mxCell>
        <mxCell id="XMmYEZVZqPeoU-TsVdnT-19" value="Regresión&lt;div&gt;y = B0X + B1X + ... + BnXn&lt;/div&gt;" style="whiteSpace=wrap;html=1;rounded=1;" vertex="1" parent="1">
          <mxGeometry x="635" y="535" width="120" height="60" as="geometry" />
        </mxCell>
        <mxCell id="XMmYEZVZqPeoU-TsVdnT-24" value="" style="edgeStyle=orthogonalEdgeStyle;rounded=0;orthogonalLoop=1;jettySize=auto;html=1;" edge="1" parent="1" source="XMmYEZVZqPeoU-TsVdnT-21" target="XMmYEZVZqPeoU-TsVdnT-23">
          <mxGeometry relative="1" as="geometry" />
        </mxCell>
        <mxCell id="XMmYEZVZqPeoU-TsVdnT-32" style="edgeStyle=orthogonalEdgeStyle;rounded=0;orthogonalLoop=1;jettySize=auto;html=1;entryX=1;entryY=0.5;entryDx=0;entryDy=0;" edge="1" parent="1" source="XMmYEZVZqPeoU-TsVdnT-21" target="XMmYEZVZqPeoU-TsVdnT-12">
          <mxGeometry relative="1" as="geometry">
            <Array as="points">
              <mxPoint x="760" y="670" />
              <mxPoint x="760" y="780" />
              <mxPoint x="887" y="780" />
              <mxPoint x="887" y="565" />
            </Array>
          </mxGeometry>
        </mxCell>
        <mxCell id="XMmYEZVZqPeoU-TsVdnT-21" value="Modelo&lt;div&gt;Regresión Lineal&lt;/div&gt;&lt;div&gt;Ridge&lt;/div&gt;&lt;div&gt;Lasso&lt;/div&gt;&lt;div&gt;ElasticNet&lt;/div&gt;" style="whiteSpace=wrap;html=1;rounded=1;" vertex="1" parent="1">
          <mxGeometry x="620" y="630" width="135" height="80" as="geometry" />
        </mxCell>
        <mxCell id="XMmYEZVZqPeoU-TsVdnT-26" value="" style="edgeStyle=orthogonalEdgeStyle;rounded=0;orthogonalLoop=1;jettySize=auto;html=1;" edge="1" parent="1" source="XMmYEZVZqPeoU-TsVdnT-23" target="XMmYEZVZqPeoU-TsVdnT-25">
          <mxGeometry relative="1" as="geometry" />
        </mxCell>
        <mxCell id="XMmYEZVZqPeoU-TsVdnT-23" value="pred" style="whiteSpace=wrap;html=1;rounded=1;" vertex="1" parent="1">
          <mxGeometry x="627.5" y="740" width="120" height="40" as="geometry" />
        </mxCell>
        <mxCell id="XMmYEZVZqPeoU-TsVdnT-28" value="" style="edgeStyle=orthogonalEdgeStyle;rounded=0;orthogonalLoop=1;jettySize=auto;html=1;" edge="1" parent="1" source="XMmYEZVZqPeoU-TsVdnT-25" target="XMmYEZVZqPeoU-TsVdnT-27">
          <mxGeometry relative="1" as="geometry" />
        </mxCell>
        <mxCell id="XMmYEZVZqPeoU-TsVdnT-25" value="y_pred_train" style="whiteSpace=wrap;html=1;rounded=1;" vertex="1" parent="1">
          <mxGeometry x="627.5" y="810" width="120" height="60" as="geometry" />
        </mxCell>
        <mxCell id="XMmYEZVZqPeoU-TsVdnT-27" value="R2_train" style="whiteSpace=wrap;html=1;rounded=1;" vertex="1" parent="1">
          <mxGeometry x="627.5" y="900" width="120" height="60" as="geometry" />
        </mxCell>
      </root>
    </mxGraphModel>
  </diagram>
</mxfile>
